<svg width="121" height="40" viewBox="0 0 121 40" fill="none" xmlns="http://www.w3.org/2000/svg">
<path d="M50.7998 19.59H58.447V17.3807H53.2978V14.2876H57.852V12.1804H53.2978V9.39148H58.447V7.18213H50.7998V19.59Z" fill="#5F34A6"/>
<path d="M69.2739 7.18213H66.5383L65.206 9.90218C65.0927 10.1509 64.995 10.3774 64.9151 10.5816C64.8569 10.7269 64.8065 10.8751 64.7641 11.0257C64.7187 10.8747 64.6645 10.7264 64.602 10.5816C64.5176 10.3774 64.4111 10.1509 64.2867 9.90218L63.0033 7.18213H60.1967L63.3053 13.1773L59.9746 19.5856H62.7102L64.2068 16.5258C64.3214 16.299 64.4236 16.0663 64.5132 15.8286C64.5909 15.6065 64.6487 15.4489 64.682 15.3356C64.7286 15.4489 64.7952 15.6132 64.8862 15.8286C64.9773 16.0439 65.0794 16.2726 65.1927 16.5258L66.6892 19.5856H69.4937L66.163 13.1773L69.2739 7.18213Z" fill="#5F34A6"/>
<path d="M72.7757 19.2924C73.4549 19.6011 74.1923 19.7609 74.9384 19.7609C75.6845 19.7609 76.4219 19.6011 77.1011 19.2924C77.6866 19.0005 78.176 18.5465 78.5111 17.9846C78.8552 17.3879 79.0287 16.7081 79.0129 16.0195V10.7526C79.0287 10.064 78.8552 9.38422 78.5111 8.78749C78.176 8.22556 77.6866 7.77163 77.1011 7.47965C76.4219 7.17095 75.6845 7.01123 74.9384 7.01123C74.1923 7.01123 73.4549 7.17095 72.7757 7.47965C72.1864 7.7695 71.6936 8.22373 71.3568 8.78749C71.0128 9.38422 70.8392 10.064 70.855 10.7526V16.0195C70.8392 16.7081 71.0128 17.3879 71.3568 17.9846C71.6936 18.5484 72.1864 19.0026 72.7757 19.2924V19.2924ZM73.4041 10.7526C73.4041 9.73118 73.914 9.22122 74.934 9.2227C75.9539 9.22418 76.4639 9.73414 76.4639 10.7526V16.0195C76.4639 17.0409 75.9539 17.5509 74.934 17.5494C73.914 17.5479 73.4041 17.0379 73.4041 16.0195V10.7526Z" fill="#5F34A6"/>
<path d="M86.4316 17.1941C86.068 17.4509 85.6279 17.5762 85.1837 17.5494C84.7167 17.5757 84.254 17.4478 83.8669 17.1852C83.7106 17.0719 83.5845 16.9219 83.4998 16.7485C83.415 16.575 83.3741 16.3834 83.3807 16.1904H80.8316C80.8152 16.8579 80.9984 17.5151 81.3578 18.0778C81.7278 18.6256 82.2472 19.0556 82.8544 19.3168C83.573 19.6271 84.3501 19.7786 85.1326 19.7609C85.9139 19.7797 86.6895 19.6227 87.4019 19.3013C88.0122 19.0205 88.5303 18.5724 88.8963 18.009C89.2589 17.435 89.445 16.7671 89.4314 16.0883C89.4654 15.1812 89.1607 14.2939 88.5765 13.5992C88.0081 12.9464 87.1747 12.4956 86.0763 12.2469L84.8373 11.9583C84.4691 11.8949 84.1315 11.7133 83.8758 11.4409C83.6584 11.1966 83.5403 10.8797 83.545 10.5527C83.532 10.3673 83.5603 10.1813 83.6279 10.0081C83.6955 9.83495 83.8006 9.67893 83.9358 9.5513C84.2558 9.30542 84.6544 9.18463 85.0571 9.21157C85.484 9.18307 85.9076 9.3031 86.2561 9.5513C86.3934 9.66396 86.5025 9.80717 86.5746 9.96948C86.6467 10.1318 86.6798 10.3087 86.6714 10.4861H89.2227C89.2427 10.0059 89.1532 9.52734 88.9608 9.08684C88.7685 8.64634 88.4783 8.25541 88.1124 7.9437C87.3723 7.31605 86.3664 7.00149 85.0948 7.00001C83.8233 6.99852 82.8263 7.32493 82.1039 7.97922C81.7369 8.30455 81.4469 8.70743 81.2549 9.15868C81.0629 9.60993 80.9737 10.0983 80.9937 10.5883C80.9679 11.4921 81.2798 12.3732 81.8685 13.0596C82.5175 13.7727 83.3784 14.2584 84.3244 14.4452L85.5811 14.7338C85.9514 14.7997 86.2895 14.9863 86.5426 15.2645C86.7687 15.5227 86.8899 15.8562 86.8823 16.1993C86.8924 16.3891 86.8567 16.5786 86.7783 16.7517C86.6998 16.9248 86.5809 17.0765 86.4316 17.1941V17.1941Z" fill="#5F34A6"/>
<path d="M93.6988 7.18213L90.6567 19.59H93.2569L93.852 16.7856H96.8096L97.4025 19.59H100.005L96.9273 7.18213H93.6988ZM94.2761 14.745L94.9045 11.7363C94.9955 11.3077 95.0777 10.8814 95.1509 10.4617C95.2242 10.0421 95.2842 9.71566 95.3308 9.47585C95.3752 9.71566 95.4396 10.0465 95.5262 10.4706C95.6128 10.8947 95.6927 11.3233 95.7727 11.754L96.3655 14.745H94.2761Z" fill="#5F34A6"/>
<path d="M105.896 11.0923C105.783 11.4987 105.694 11.8562 105.632 12.1626C105.57 12.469 105.534 12.6844 105.523 12.8087C105.51 12.6844 105.474 12.469 105.412 12.1626C105.35 11.8562 105.257 11.4965 105.132 11.0923L104.022 7.18213H101.142V19.59H103.471V14.8316C103.48 13.7015 103.426 12.5717 103.309 11.4476C103.203 10.4973 103.098 9.65349 102.996 8.9163L104.439 14.3209H106.562L108.008 8.71202C107.916 9.57355 107.823 10.4973 107.728 11.4831C107.633 12.469 107.585 13.5852 107.584 14.8316V19.59H109.911V7.18213H107.024L105.896 11.0923Z" fill="#5F34A6"/>
<path d="M114.247 16.7856H117.205L117.8 19.59H120.4L117.322 7.18213H114.094L111.052 19.59H113.652L114.247 16.7856ZM115.302 11.7363C115.391 11.3077 115.473 10.8814 115.548 10.4617C115.624 10.0421 115.681 9.71566 115.726 9.47585C115.77 9.71566 115.837 10.0465 115.921 10.4706C116.006 10.8947 116.088 11.3233 116.168 11.754L116.763 14.745H114.671L115.302 11.7363Z" fill="#5F34A6"/>
<path d="M56.7129 32.7217C56.7129 33.0503 56.7129 33.4123 56.7396 33.8097C56.7662 34.2072 56.7751 34.5913 56.7995 34.9644C56.824 35.3374 56.8373 35.6549 56.8506 35.9169L52.8538 25.0723H51.0508V37.4801H52.3608V29.8307C52.3608 29.2645 52.3453 28.6761 52.3187 28.0543C52.292 27.4326 52.2631 26.9663 52.2409 26.6266L56.2022 37.4713H58.0208V25.0723H56.7107L56.7129 32.7217Z" fill="#5F34A6"/>
<path d="M61.4224 37.4801H68.4234V36.2567H62.7635V31.5982H67.8284V30.3925H62.7635V26.2957H68.4234V25.0723H61.4224V37.4801Z" fill="#5F34A6"/>
<path d="M70.7861 26.2957H74.27V37.4801H75.6134V26.2957H79.0817V25.0723H70.7861V26.2957Z" fill="#5F34A6"/>
<path d="M87.5105 34.2516C87.4661 34.6024 87.4239 34.9999 87.3839 35.4418C87.3439 35.8836 87.3084 36.2389 87.2729 36.512C87.2396 36.2389 87.1974 35.8836 87.1463 35.4418C87.0953 34.9999 87.0464 34.6024 87.002 34.2516L85.8918 25.0723H84.4485L83.2583 34.2516C83.2006 34.6024 83.1495 34.9992 83.1051 35.4418C83.0585 35.8859 83.0207 36.2389 82.9852 36.512C82.9852 36.2389 82.9497 35.8836 82.9097 35.4418C82.8697 34.9999 82.832 34.6024 82.7987 34.2516L81.795 25.0723H80.5205L81.9838 37.4801H83.7002L84.9059 28.2164C84.9525 27.8212 84.9969 27.4171 85.0413 27.0107C85.0857 26.6044 85.1279 26.2802 85.1612 26.0404C85.1834 26.2802 85.2212 26.6022 85.2723 27.0107C85.3233 27.4193 85.37 27.8212 85.4166 28.2164L86.5268 37.4801H88.261L89.7398 25.0723H88.4986L87.5105 34.2516Z" fill="#5F34A6"/>
<path d="M95.3309 24.9036C94.2429 24.9036 93.3843 25.2174 92.7552 25.845C92.1261 26.4727 91.8115 27.3313 91.8115 28.4208V34.1384C91.8115 35.2264 92.1261 36.085 92.7552 36.7141C93.3843 37.3433 94.2429 37.6578 95.3309 37.6578C96.416 37.6578 97.2738 37.3433 97.9044 36.7141C98.535 36.085 98.8496 35.2264 98.8481 34.1384V28.4208C98.8481 27.3327 98.5336 26.4742 97.9044 25.845C97.2753 25.2159 96.4175 24.9021 95.3309 24.9036ZM97.5048 34.1384C97.5048 34.8786 97.3153 35.4477 96.9363 35.8459C96.7265 36.0542 96.475 36.2158 96.1983 36.3199C95.9216 36.4239 95.626 36.4683 95.3309 36.4499C94.6382 36.4499 94.103 36.2501 93.7233 35.8459C93.3436 35.4418 93.1549 34.8756 93.1549 34.1384V28.4208C93.1549 27.6806 93.3444 27.1114 93.7233 26.7132C94.1683 26.3247 94.7391 26.1106 95.3298 26.1106C95.9206 26.1106 96.4913 26.3247 96.9363 26.7132C97.3168 27.1159 97.5062 27.6851 97.5048 28.4208V34.1384Z" fill="#5F34A6"/>
<path d="M108.782 30.7921C109.247 30.1604 109.486 29.391 109.462 28.6072C109.479 27.9587 109.326 27.3171 109.018 26.7465C108.72 26.2218 108.278 25.794 107.743 25.5141C107.147 25.2083 106.484 25.0557 105.814 25.07H102.077V37.4779H103.42V32.1266H105.545L108.027 37.4801H109.624L106.939 31.9912C107.673 31.8143 108.323 31.391 108.782 30.7921V30.7921ZM103.411 30.9031V26.2957H105.807C106.112 26.2775 106.418 26.3244 106.704 26.4332C106.99 26.542 107.25 26.7102 107.466 26.9268C107.682 27.1434 107.85 27.4034 107.958 27.6896C108.067 27.9758 108.113 28.2818 108.094 28.5872C108.109 28.8947 108.062 29.202 107.956 29.4908C107.849 29.7797 107.686 30.044 107.475 30.2681C107.256 30.4816 106.996 30.6478 106.711 30.7563C106.426 30.8648 106.121 30.9133 105.816 30.8987L103.411 30.9031Z" fill="#5F34A6"/>
<path d="M119.889 25.0723H118.41L115.657 30.4613H113.618V25.0723H112.275V37.4801H113.618V31.6492H115.623L118.497 37.4801H120.06L116.847 31.0209L119.889 25.0723Z" fill="#5F34A6"/>
<path d="M17.7673 0.45134C16.2532 0.736953 13.746 1.2024 12.3892 1.86178L12.627 1.47391C11.8611 1.81341 11.1253 2.21802 10.4275 2.68336L10.5324 2.21439C8.8446 3.16667 7.37252 4.46372 6.21033 6.02257L6.01451 5.31735C2.90935 8.72355 2.92683 11.8512 2.84291 11.9217L2.38832 11.2412C1.04904 13.5049 1.39872 17.1756 1.7484 17.7786L0.587464 16.3399C-0.0699362 19.8484 0.349681 23.4944 1.69246 25.9873L0.601451 24.8378C0.853221 27.0839 1.48964 28.0783 1.5316 28.1382L0 27.1509C0.548999 31.488 4.934 34.6227 4.934 34.6227L3.6157 34.5134C4.66474 35.6206 6.88871 36.5691 6.88871 36.5691H5.81869C10.9695 39.9824 20.0017 40 20.0017 40C20.0017 40 29.0305 40 34.1813 36.5691H33.1113C33.1113 36.5691 35.3283 35.6206 36.3843 34.5134L35.066 34.6227C35.066 34.6227 39.451 31.488 40 27.1509L38.4649 28.1382C38.5034 28.0783 39.1398 27.0804 39.3916 24.8378L38.3006 25.9873C39.6608 23.4944 40.049 19.8484 39.4055 16.3399L38.2341 17.7786C38.5838 17.1756 38.9614 13.5049 37.6047 11.2412L37.1501 11.9217C37.0662 11.8512 37.0837 8.72355 33.9785 5.30677L33.7827 6.01199C32.6225 4.45389 31.1529 3.15689 29.4676 2.20381L29.5725 2.67278C28.8747 2.20744 28.1389 1.80283 27.373 1.46333L27.6003 1.83709C25.5722 0.870945 21.4669 0.126939 19.1066 0L17.7673 0.45134ZM13.2564 27.2849C13.0886 28.4944 11.0534 28.9528 9.94143 27.5952C9.00778 26.4492 10.0219 25.0705 10.0219 25.0705C9.70015 24.0303 7.39925 23.8752 7.39925 23.8752C8.56519 23.6685 9.76298 23.741 10.8961 24.0867C12.3542 24.5945 13.4802 25.6841 13.2564 27.2849ZM23.9531 35.0776C22.923 36.109 21.7172 36.9451 20.3934 37.5458C20.1411 37.6488 19.8589 37.6488 19.6066 37.5458C18.2833 36.9442 17.0777 36.1082 16.0469 35.0776C15.1587 34.2207 14.7146 33.579 14.7146 32.7821C14.7296 32.432 14.8191 32.0893 14.9768 31.7772C15.3622 30.8941 15.928 30.1028 16.6372 29.4552C17.3464 28.8075 18.183 28.3179 19.0926 28.0183C19.6824 27.8256 20.3176 27.8256 20.9074 28.0183C21.817 28.3179 22.6536 28.8075 23.3628 29.4552C24.072 30.1028 24.6378 30.8941 25.0232 31.7772C25.1824 32.0926 25.2719 32.439 25.2854 32.7927C25.2854 33.579 24.8448 34.2207 23.9531 35.0776ZM30.0726 27.5952C28.9606 28.9528 26.9254 28.4944 26.7576 27.2849C26.5338 25.6841 27.6598 24.5945 29.1284 24.0867C30.2615 23.741 31.4593 23.6685 32.6252 23.8752C32.6252 23.8752 30.3243 24.0303 30.0026 25.0705C29.9781 25.0705 30.9922 26.4457 30.0726 27.5952Z" fill="#5F34A6"/>
</svg>
